<svg width="29" height="29" viewBox="0 0 29 29" fill="none" xmlns="http://www.w3.org/2000/svg">
<path d="M19.1167 17.2965H18.1255L17.7533 16.9857C18.9309 15.5566 19.6746 13.7542 19.6746 11.7036C19.6746 7.22916 16.08 3.625 11.619 3.625C7.21896 3.625 3.625 7.22916 3.625 11.7036C3.625 16.178 7.21896 19.7821 11.6807 19.7821C13.6638 19.7821 15.5227 19.0363 16.9478 17.8559L17.3194 18.1667V19.1608L23.5161 25.375L25.375 23.5107L19.1167 17.2965ZM11.6807 17.2965C8.58236 17.2965 6.10371 14.8107 6.10371 11.7036C6.10371 8.5964 8.58236 6.11079 11.6807 6.11079C14.779 6.11079 17.2577 8.5964 17.2577 11.7036C17.2577 14.8107 14.779 17.2965 11.6807 17.2965Z" fill="#D31328"/>
</svg>
